<svg width="140" height="140" viewBox="0 0 140 140" fill="none" xmlns="http://www.w3.org/2000/svg">
<path d="M69.9999 37.11C63.4949 37.11 57.1359 39.039 51.7272 42.653C46.3184 46.2669 42.1028 51.4037 39.6135 57.4135C37.1241 63.4234 36.4728 70.0365 37.7419 76.4165C39.0109 82.7965 42.1434 88.657 46.7431 93.2567C51.3429 97.8565 57.2033 100.989 63.5834 102.258C69.9634 103.527 76.5765 102.876 82.5863 100.386C88.5962 97.897 93.7329 93.6814 97.3469 88.2727C100.961 82.864 102.89 76.505 102.89 70C102.882 61.2795 99.4142 52.9184 93.2478 46.752C87.0815 40.5857 78.7204 37.1179 69.9999 37.11ZM50.9999 70C50.9985 67.2921 51.253 64.5901 51.7599 61.93C54.0181 61.2279 56.3241 60.6899 58.6599 60.32C58.0065 66.7568 58.0065 73.2432 58.6599 79.68C56.3241 79.3101 54.0181 78.772 51.7599 78.07C51.253 75.4099 50.9985 72.7079 50.9999 70ZM47.3899 76.39C43.3899 74.5 41.1199 72.19 41.1199 70C41.1199 67.81 43.3999 65.5 47.3899 63.61C46.8032 67.8498 46.8032 72.1502 47.3899 76.39ZM86.9999 57.37C84.9345 56.8407 82.8413 56.4268 80.7299 56.13C80.1498 51.7075 78.941 47.3905 77.1399 43.31C81.4899 46 84.9999 51 86.9999 57.37ZM76.5999 55.65C74.4799 55.48 72.2799 55.38 69.9999 55.38C67.7199 55.38 65.5199 55.48 63.3999 55.65C64.9999 46.53 67.8199 41.16 69.9999 41.16C72.1799 41.16 74.9999 46.53 76.5999 55.65ZM77.7399 70C77.7449 73.4145 77.5579 76.8265 77.1799 80.22C72.4046 80.6867 67.5952 80.6867 62.8199 80.22C62.0732 73.4271 62.0732 66.5729 62.8199 59.78C67.5952 59.3133 72.4046 59.3133 77.1799 59.78C77.5579 63.1735 77.7449 66.5855 77.7399 70ZM62.8199 43.31C61.0188 47.3905 59.8099 51.7075 59.2299 56.13C57.1319 56.4282 55.0521 56.8422 52.9999 57.37C54.9999 51 58.5099 46 62.8199 43.31ZM59.2299 83.87C59.8099 88.2925 61.0188 92.6094 62.8199 96.69C58.5099 94 54.9999 89 52.9999 82.63C55.0519 83.1588 57.1318 83.5728 59.2299 83.87ZM63.3999 84.35C65.5199 84.52 67.7199 84.62 69.9999 84.62C72.2799 84.62 74.4799 84.52 76.5999 84.35C74.9999 93.47 72.1799 98.84 69.9999 98.84C67.8199 98.84 64.9999 93.47 63.3999 84.35ZM77.1799 96.69C78.981 92.6094 80.1898 88.2925 80.7699 83.87C82.868 83.5728 84.9479 83.1588 86.9999 82.63C84.9999 89 81.4899 94 77.1799 96.69ZM81.2999 79.69C81.6261 76.4703 81.7896 73.2362 81.7899 70C81.7893 66.7671 81.6257 63.5364 81.2999 60.32C83.6356 60.6899 85.9416 61.2279 88.1999 61.93C89.2131 67.2623 89.2131 72.7377 88.1999 78.07C85.9416 78.772 83.6356 79.3101 81.2999 79.68V79.69ZM92.5699 63.61C96.5699 65.5 98.8399 67.81 98.8399 70C98.8399 72.19 96.5599 74.5 92.5699 76.39C93.1565 72.1502 93.1565 67.8498 92.5699 63.61ZM97.6699 61.89C95.8023 60.6262 93.7874 59.5952 91.6699 58.82C90.5277 54.0649 88.432 49.5913 85.5099 45.67C91.3868 49.4331 95.7055 55.1937 97.6699 61.89ZM54.5299 45.67C51.6078 49.5913 49.5121 54.0649 48.3699 58.82C46.2523 59.5952 44.2374 60.6262 42.3699 61.89C44.3342 55.1937 48.6529 49.4331 54.5299 45.67ZM42.3299 78.11C44.1974 79.3738 46.2123 80.4048 48.3299 81.18C49.4721 85.935 51.5678 90.4087 54.4899 94.33C48.6129 90.5669 44.2942 84.8063 42.3299 78.11ZM85.4699 94.33C88.392 90.4087 90.4877 85.935 91.6299 81.18C93.7474 80.4048 95.7623 79.3738 97.6299 78.11C95.6655 84.8063 91.3468 90.5669 85.4699 94.33Z" fill="white"/>
<path d="M38.1 119.62C38.0196 119.71 37.929 119.791 37.83 119.86C35.5135 122.065 32.4379 123.294 29.24 123.294C26.042 123.294 22.9665 122.065 20.65 119.86C20.5509 119.791 20.4603 119.71 20.38 119.62C18.6276 117.868 17.4342 115.635 16.9507 113.204C16.4673 110.774 16.7154 108.254 17.6637 105.965C18.6121 103.675 20.2181 101.718 22.2787 100.342C24.3392 98.9648 26.7618 98.2299 29.24 98.2299C31.7182 98.2299 34.1407 98.9648 36.2013 100.342C38.2618 101.718 39.8678 103.675 40.8162 105.965C41.7646 108.254 42.0127 110.774 41.5292 113.204C41.0457 115.635 39.8523 117.868 38.1 119.62Z" fill="#00CE7C"/>
<path d="M119.62 38.1C119.54 38.1902 119.449 38.2708 119.35 38.34C117.033 40.5447 113.958 41.7743 110.76 41.7743C107.562 41.7743 104.487 40.5447 102.17 38.34C102.071 38.2708 101.98 38.1902 101.9 38.1C100.148 36.3476 98.9542 34.115 98.4708 31.6844C97.9873 29.2538 98.2354 26.7345 99.1838 24.4449C100.132 22.1553 101.738 20.1984 103.799 18.8216C105.859 17.4448 108.282 16.7099 110.76 16.7099C113.238 16.7099 115.661 17.4448 117.721 18.8216C119.782 20.1984 121.388 22.1553 122.336 24.4449C123.285 26.7345 123.533 29.2538 123.049 31.6844C122.566 34.115 121.372 36.3476 119.62 38.1Z" fill="#00CE7C"/>
<path d="M38.1 38.1C38.0196 38.1902 37.929 38.2708 37.83 38.34C35.5135 40.5447 32.4379 41.7743 29.24 41.7743C26.042 41.7743 22.9665 40.5447 20.65 38.34C20.5509 38.2708 20.4603 38.1902 20.38 38.1C18.6276 36.3476 17.4342 34.115 16.9507 31.6844C16.4673 29.2538 16.7154 26.7345 17.6637 24.4449C18.6121 22.1553 20.2181 20.1984 22.2787 18.8216C24.3392 17.4448 26.7618 16.7099 29.24 16.7099C31.7182 16.7099 34.1407 17.4448 36.2013 18.8216C38.2618 20.1984 39.8678 22.1553 40.8162 24.4449C41.7646 26.7345 42.0127 29.2538 41.5292 31.6844C41.0457 34.115 39.8523 36.3476 38.1 38.1Z" fill="#00CE7C"/>
<path d="M119.62 119.62C119.54 119.71 119.449 119.791 119.35 119.86C117.033 122.065 113.958 123.294 110.76 123.294C107.562 123.294 104.487 122.065 102.17 119.86C102.071 119.791 101.98 119.71 101.9 119.62C100.148 117.868 98.9542 115.635 98.4708 113.204C97.9873 110.774 98.2354 108.254 99.1838 105.965C100.132 103.675 101.738 101.718 103.799 100.342C105.859 98.9648 108.282 98.2299 110.76 98.2299C113.238 98.2299 115.661 98.9648 117.721 100.342C119.782 101.718 121.388 103.675 122.336 105.965C123.285 108.254 123.533 110.774 123.049 113.204C122.566 115.635 121.372 117.868 119.62 119.62Z" fill="#00CE7C"/>
<path d="M119.35 119.86C117.033 122.065 113.958 123.294 110.76 123.294C107.562 123.294 104.486 122.065 102.17 119.86C102.68 118.41 104.38 117.19 106.7 116.53C105.521 115.674 104.643 114.466 104.193 113.08C103.742 111.694 103.742 110.201 104.192 108.815C104.643 107.43 105.52 106.222 106.699 105.365C107.878 104.509 109.298 104.047 110.755 104.047C112.212 104.047 113.632 104.509 114.811 105.365C115.99 106.222 116.867 107.43 117.317 108.815C117.768 110.201 117.767 111.694 117.317 113.08C116.867 114.466 115.989 115.674 114.81 116.53C117.13 117.19 118.84 118.41 119.35 119.86Z" fill="white"/>
<path d="M37.8299 119.86C35.5134 122.065 32.4379 123.294 29.2399 123.294C26.0419 123.294 22.9664 122.065 20.6499 119.86C21.1599 118.41 22.8699 117.19 25.1899 116.53C24.0078 115.673 23.1274 114.464 22.675 113.076C22.2226 111.688 22.2215 110.192 22.6718 108.803C23.1222 107.415 24.0008 106.204 25.1817 105.346C26.3625 104.487 27.785 104.025 29.2449 104.025C30.7048 104.025 32.1273 104.487 33.3081 105.346C34.489 106.204 35.3676 107.415 35.818 108.803C36.2683 110.192 36.2672 111.688 35.8148 113.076C35.3624 114.464 34.482 115.673 33.2999 116.53C35.6199 117.19 37.3199 118.41 37.8299 119.86Z" fill="white"/>
<path d="M37.8299 38.34C35.5134 40.5447 32.4379 41.7743 29.2399 41.7743C26.0419 41.7743 22.9664 40.5447 20.6499 38.34C21.1599 36.9 22.8699 35.69 25.1899 35.03C24.0078 34.1733 23.1274 32.9641 22.675 31.576C22.2226 30.1879 22.2215 28.6922 22.6718 27.3035C23.1222 25.9147 24.0008 24.7043 25.1817 23.8458C26.3625 22.9873 27.785 22.5249 29.2449 22.5249C30.7048 22.5249 32.1273 22.9873 33.3081 23.8458C34.489 24.7043 35.3676 25.9147 35.818 27.3035C36.2683 28.6922 36.2672 30.1879 35.8148 31.576C35.3624 32.9641 34.482 34.1733 33.2999 35.03C35.6199 35.69 37.3199 36.9 37.8299 38.34Z" fill="white"/>
<path d="M119.35 38.34C117.033 40.5447 113.958 41.7743 110.76 41.7743C107.562 41.7743 104.486 40.5447 102.17 38.34C102.68 36.9 104.38 35.69 106.7 35.03C105.521 34.1736 104.643 32.966 104.193 31.5801C103.742 30.1943 103.742 28.7014 104.192 27.3155C104.643 25.9296 105.52 24.7218 106.699 23.8652C107.878 23.0086 109.298 22.5473 110.755 22.5473C112.212 22.5473 113.632 23.0086 114.811 23.8652C115.99 24.7218 116.867 25.9296 117.317 27.3155C117.768 28.7014 117.767 30.1943 117.317 31.5801C116.867 32.966 115.989 34.1736 114.81 35.03C117.13 35.69 118.84 36.9 119.35 38.34Z" fill="white"/>
<path d="M45.0799 24.37C45.1689 24.6384 45.3139 24.8849 45.5051 25.0932C45.6964 25.3015 45.9297 25.4668 46.1896 25.5783C46.4494 25.6898 46.73 25.745 47.0128 25.7401C47.2955 25.7352 47.574 25.6704 47.8299 25.55C54.7123 22.1041 62.3031 20.31 69.9999 20.31C77.6967 20.31 85.2875 22.1041 92.1699 25.55C92.4258 25.6704 92.7043 25.7352 92.987 25.7401C93.2698 25.745 93.5503 25.6898 93.8102 25.5783C94.0701 25.4668 94.3034 25.3015 94.4947 25.0932C94.6859 24.8849 94.8309 24.6384 94.9199 24.37C94.9142 24.3268 94.9142 24.2831 94.9199 24.24C95.0482 23.7959 95.0186 23.3211 94.8363 22.8963C94.654 22.4715 94.3302 22.123 93.9199 21.91C86.4758 18.1942 78.2698 16.2599 69.9499 16.2599C61.63 16.2599 53.4239 18.1942 45.9799 21.91C45.5696 22.123 45.2458 22.4715 45.0635 22.8963C44.8812 23.3211 44.8516 23.7959 44.9799 24.24C45.0202 24.2775 45.0539 24.3214 45.0799 24.37Z" fill="#6C7789"/>
<path d="M114.45 92.17C114.33 92.4259 114.265 92.7044 114.26 92.9871C114.255 93.2699 114.31 93.5504 114.422 93.8103C114.533 94.0702 114.699 94.3035 114.907 94.4948C115.115 94.686 115.362 94.831 115.63 94.92H115.76C116.204 95.0482 116.679 95.0187 117.104 94.8364C117.529 94.6541 117.877 94.3303 118.09 93.92C121.806 86.4759 123.74 78.2699 123.74 69.95C123.74 61.63 121.806 53.424 118.09 45.98C117.877 45.5697 117.529 45.2459 117.104 45.0636C116.679 44.8813 116.204 44.8517 115.76 44.98H115.63C115.362 45.069 115.115 45.2139 114.907 45.4052C114.699 45.5965 114.533 45.8298 114.422 46.0897C114.31 46.3495 114.255 46.6301 114.26 46.9129C114.265 47.1956 114.33 47.4741 114.45 47.73C117.896 54.6123 119.69 62.2032 119.69 69.9C119.69 77.5968 117.896 85.1876 114.45 92.07V92.17Z" fill="#6C7789"/>
<path d="M94.92 115.63C94.831 115.362 94.686 115.115 94.4948 114.907C94.3035 114.699 94.0702 114.533 93.8103 114.422C93.5504 114.31 93.2699 114.255 92.9871 114.26C92.7044 114.265 92.4259 114.33 92.17 114.45C85.2876 117.896 77.6968 119.69 70 119.69C62.3032 119.69 54.7124 117.896 47.83 114.45C47.5741 114.33 47.2956 114.265 47.0129 114.26C46.7301 114.255 46.4495 114.31 46.1897 114.422C45.9298 114.533 45.6965 114.699 45.5052 114.907C45.314 115.115 45.169 115.362 45.08 115.63C45.0857 115.673 45.0857 115.717 45.08 115.76C44.9517 116.204 44.9813 116.679 45.1636 117.104C45.3459 117.528 45.6697 117.877 46.08 118.09C53.524 121.806 61.7301 123.74 70.05 123.74C78.3699 123.74 86.5759 121.806 94.02 118.09C94.4303 117.877 94.7541 117.528 94.9364 117.104C95.1187 116.679 95.1482 116.204 95.02 115.76C94.9797 115.722 94.9459 115.679 94.92 115.63Z" fill="#6C7789"/>
<path d="M24.3699 94.92C24.6383 94.831 24.8848 94.686 25.0931 94.4948C25.3014 94.3035 25.4667 94.0702 25.5782 93.8103C25.6898 93.5504 25.7449 93.2699 25.74 92.9871C25.7351 92.7044 25.6703 92.4259 25.5499 92.17C22.1041 85.2876 20.3099 77.6968 20.3099 70C20.3099 62.3032 22.1041 54.7124 25.5499 47.83C25.6703 47.5741 25.7351 47.2956 25.74 47.0129C25.7449 46.7301 25.6898 46.4495 25.5782 46.1897C25.4667 45.9298 25.3014 45.6965 25.0931 45.5052C24.8848 45.314 24.6383 45.169 24.3699 45.08H24.2399C23.7958 44.9517 23.321 44.9813 22.8962 45.1636C22.4714 45.3459 22.1229 45.6697 21.9099 46.08C18.1941 53.524 16.2598 61.7301 16.2598 70.05C16.2598 78.3699 18.1941 86.5759 21.9099 94.02C22.1229 94.4303 22.4714 94.7541 22.8962 94.9364C23.321 95.1187 23.7958 95.1482 24.2399 95.02L24.3699 94.92Z" fill="#6C7789"/>
</svg>
