<svg width="140" height="140" viewBox="0 0 140 140" fill="none" xmlns="http://www.w3.org/2000/svg">
<path d="M138 113.35L112.06 94.86C112.016 94.8303 111.963 94.8145 111.91 94.8145C111.857 94.8145 111.804 94.8303 111.76 94.86C111.713 94.8867 111.675 94.9264 111.65 94.9743C111.625 95.0223 111.615 95.0763 111.62 95.13L115.36 126.76L121.36 117.99L126.85 127.28L132.98 123.65L127.48 114.36L138 113.35Z" fill="white"/>
<path d="M108.19 95.53C108.107 94.8119 108.234 94.0851 108.555 93.4376C108.876 92.79 109.378 92.2494 110 91.8812C110.622 91.513 111.338 91.333 112.06 91.363C112.782 91.3929 113.481 91.6316 114.07 92.05L124.46 99.46C126.938 96.8981 128.326 93.4744 128.33 89.91V59.07C128.319 55.4106 126.861 51.9041 124.273 49.3165C121.686 46.7289 118.179 45.2706 114.52 45.26H15.82C12.1589 45.2679 8.64981 46.7251 6.06006 49.313C3.47031 51.9009 2.01057 55.4089 2 59.07V89.91C2.00793 93.5702 3.46545 97.0782 6.05361 99.6664C8.64177 102.255 12.1498 103.712 15.81 103.72H109.15L108.19 95.53Z" fill="#00CE7C"/>
<path d="M22.3701 59.79H36.7501C38.1064 59.7822 39.4558 59.9846 40.7501 60.39C41.9313 60.736 43.0348 61.3064 44.0001 62.07C44.8767 62.7687 45.5871 63.6533 46.0801 64.66C46.5812 65.701 46.8312 66.8449 46.8101 68C46.8141 69.1693 46.507 70.3186 45.9201 71.33C45.3196 72.3761 44.4928 73.2747 43.5001 73.96C44.7193 74.6053 45.768 75.5306 46.5601 76.66C47.3184 77.7219 47.7242 78.9951 47.7201 80.3C47.7553 81.4799 47.5152 82.6518 47.0187 83.7228C46.5223 84.7937 45.7832 85.7343 44.8601 86.47C42.7513 88.1165 40.1227 88.9536 37.4501 88.83H22.3701V59.79ZM36.2901 65.63H29.5001V71.35H36.2901C37.1783 71.3899 38.0513 71.1096 38.7501 70.56C39.0551 70.3102 39.2985 69.9935 39.4615 69.6346C39.6245 69.2757 39.7027 68.884 39.6901 68.49C39.7042 68.0958 39.6267 67.7036 39.4636 67.3445C39.3005 66.9853 39.0562 66.6688 38.7501 66.42C38.0539 65.8655 37.179 65.5846 36.2901 65.63ZM36.9101 82.94C37.8588 82.9948 38.7947 82.6994 39.5401 82.11C39.8462 81.8238 40.0903 81.4777 40.2571 81.0932C40.424 80.7087 40.51 80.2941 40.51 79.875C40.51 79.4559 40.424 79.0413 40.2571 78.6568C40.0903 78.2724 39.8462 77.9263 39.5401 77.64C38.7925 77.0547 37.8583 76.7599 36.9101 76.81H29.5001V82.94H36.9101Z" fill="white"/>
<path d="M77.5501 76.15C77.5611 77.9841 77.2217 79.8033 76.5501 81.51C75.9653 83.0587 75.0548 84.4637 73.8801 85.63C72.6946 86.7929 71.2771 87.6925 69.7201 88.27C67.982 88.9088 66.1417 89.224 64.2901 89.2C62.4341 89.2187 60.5893 88.9107 58.8401 88.29C57.2807 87.7317 55.8613 86.8411 54.6801 85.68C53.5252 84.5055 52.6293 83.102 52.0501 81.56C51.4099 79.8292 51.0947 77.9952 51.1201 76.15V59.79H58.2401V76.15C58.2084 77.0108 58.3477 77.8694 58.6497 78.6761C58.9518 79.4828 59.4108 80.2217 60.0001 80.85C60.569 81.4384 61.2562 81.8995 62.0164 82.2029C62.7765 82.5062 63.5924 82.645 64.4101 82.61C65.2252 82.648 66.0389 82.5105 66.7962 82.2068C67.5536 81.9032 68.2369 81.4405 68.8001 80.85C69.9512 79.5633 70.5478 77.8742 70.4601 76.15V59.79H77.5901L77.5501 76.15Z" fill="white"/>
<path d="M91.1301 88.78V77.97L79.1201 59.79H87.3201L94.9001 71.68L102.52 59.79H110.27L98.2501 77.97V88.78H91.1301Z" fill="white"/>
<path d="M89.51 37.58C89.51 38.1423 89.2866 38.6815 88.8891 39.0791C88.4915 39.4766 87.9523 39.7 87.39 39.7H59.08C58.5247 39.6895 57.9957 39.4615 57.6067 39.0651C57.2178 38.6686 56.9999 38.1354 57 37.58C57 37.0177 57.2234 36.4785 57.6209 36.0809C58.0185 35.6833 58.5577 35.46 59.12 35.46H87.42C87.9754 35.4729 88.504 35.7014 88.894 36.097C89.2841 36.4927 89.505 37.0245 89.51 37.58Z" fill="#6C7789"/>
<path d="M51.5099 37.58C51.5099 38.1423 51.2865 38.6815 50.889 39.0791C50.4914 39.4767 49.9522 39.7 49.3899 39.7H42.9999C42.4376 39.7 41.8984 39.4767 41.5008 39.0791C41.1033 38.6815 40.8799 38.1423 40.8799 37.58C40.8786 37.3008 40.9325 37.024 41.0384 36.7657C41.1444 36.5073 41.3003 36.2724 41.4973 36.0745C41.6943 35.8766 41.9284 35.7195 42.1863 35.6123C42.4442 35.5052 42.7207 35.45 42.9999 35.45H49.4299C49.9861 35.4631 50.5151 35.6932 50.9038 36.0913C51.2925 36.4893 51.5101 37.0237 51.5099 37.58Z" fill="#6C7789"/>
<path d="M72.2302 109.28H27.2502C26.234 109.28 25.4102 110.104 25.4102 111.12V111.69C25.4102 112.706 26.234 113.53 27.2502 113.53H72.2302C73.2464 113.53 74.0702 112.706 74.0702 111.69V111.12C74.0702 110.104 73.2464 109.28 72.2302 109.28Z" fill="#6C7789"/>
<path d="M103.09 109.28H81.13C80.1138 109.28 79.29 110.104 79.29 111.12V111.69C79.29 112.706 80.1138 113.53 81.13 113.53H103.09C104.106 113.53 104.93 112.706 104.93 111.69V111.12C104.93 110.104 104.106 109.28 103.09 109.28Z" fill="#6C7789"/>
</svg>
