<svg width="140" height="140" viewBox="0 0 140 140" fill="none" xmlns="http://www.w3.org/2000/svg">
<path d="M53.1902 22.07C52.9254 21.7013 52.6881 21.3136 52.4802 20.91L33.2202 42.15H37.9302L54.6802 23.7C54.1172 23.2212 53.6166 22.6736 53.1902 22.07Z" fill="#6C7789"/>
<path d="M123.6 119.5C131.553 119.5 138 113.053 138 105.1C138 97.1471 131.553 90.7 123.6 90.7C115.647 90.7 109.2 97.1471 109.2 105.1C109.2 113.053 115.647 119.5 123.6 119.5Z" fill="#6C7789"/>
<path d="M123.6 87.21V50.88C123.597 49.4911 123.044 48.1598 122.062 47.1777C121.08 46.1956 119.749 45.6427 118.36 45.64H7.24001C5.85028 45.64 4.51746 46.1921 3.53477 47.1748C2.55208 48.1575 2.00001 49.4903 2.00001 50.88V99.88C1.99869 100.569 2.13333 101.25 2.3962 101.887C2.65907 102.523 3.04499 103.101 3.53183 103.588C4.01867 104.075 4.59685 104.461 5.23319 104.724C5.86953 104.987 6.55151 105.121 7.24001 105.12H105.71C105.713 100.374 107.598 95.8233 110.952 92.4657C114.305 89.1081 118.854 87.218 123.6 87.21Z" fill="#00CE7C"/>
<path d="M128.39 114.56C128.186 114.56 127.985 114.506 127.809 114.402C127.633 114.298 127.488 114.149 127.39 113.97L122.44 105.41V95.25C122.467 94.9596 122.601 94.6898 122.817 94.4934C123.032 94.2969 123.313 94.188 123.605 94.188C123.897 94.188 124.178 94.2969 124.393 94.4934C124.609 94.6898 124.743 94.9596 124.77 95.25V104.79L129.4 112.79C129.553 113.057 129.595 113.374 129.516 113.671C129.438 113.969 129.245 114.224 128.98 114.38C128.803 114.492 128.599 114.554 128.39 114.56Z" fill="white"/>
<path d="M60.9999 9.82001C59.7681 9.81963 58.56 10.1588 57.5085 10.8004C56.4569 11.4419 55.6025 12.3609 55.0393 13.4564C54.476 14.5519 54.2257 15.7815 54.3158 17.01C54.4059 18.2385 54.8329 19.4184 55.5499 20.42C56.5141 21.7758 57.9495 22.723 59.5753 23.0762C61.201 23.4295 62.9 23.1634 64.3399 22.33C65.1676 21.8496 65.8835 21.1985 66.4399 20.42C67.1565 19.4191 67.5834 18.2401 67.6739 17.0125C67.7643 15.7848 67.5149 14.556 66.9528 13.4609C66.3908 12.3657 65.5379 11.4465 64.4878 10.8043C63.4376 10.162 62.2309 9.82146 60.9999 9.82001ZM60.9999 19.68C60.3769 19.68 59.7679 19.4953 59.2499 19.1491C58.7319 18.803 58.3281 18.311 58.0897 17.7355C57.8513 17.1599 57.7889 16.5265 57.9104 15.9155C58.032 15.3044 58.332 14.7432 58.7725 14.3026C59.2131 13.8621 59.7743 13.5621 60.3854 13.4405C60.9964 13.319 61.6298 13.3814 62.2054 13.6198C62.781 13.8582 63.2729 14.2619 63.619 14.78C63.9652 15.298 64.1499 15.907 64.1499 16.53C64.15 16.9488 64.0666 17.3633 63.9045 17.7495C63.7425 18.1356 63.5051 18.4856 63.2062 18.7789C62.9073 19.0722 62.5529 19.3029 62.1638 19.4577C61.7747 19.6124 61.3586 19.688 60.9399 19.68H60.9999Z" fill="#00CE7C"/>
<path d="M40.4199 70.41C40.4234 72.0114 40.1047 73.5971 39.4828 75.0729C38.8609 76.5486 37.9485 77.8841 36.7999 79C35.6504 80.1113 34.2905 80.9816 32.7999 81.56C29.6396 82.8129 26.1203 82.8129 22.9599 81.56C21.4854 80.9734 20.1401 80.1037 18.9999 79C17.8731 77.9046 16.9757 76.5958 16.3599 75.15C15.7175 73.6541 15.3862 72.043 15.3862 70.415C15.3862 68.787 15.7175 67.1759 16.3599 65.68C16.9745 64.2306 17.872 62.9183 18.9999 61.82C20.1544 60.7151 21.5131 59.8456 22.9999 59.26C26.1603 58.0071 29.6796 58.0071 32.8399 59.26C34.3285 59.8421 35.6878 60.7121 36.8399 61.82C37.9885 62.9359 38.9009 64.2714 39.5228 65.7471C40.1447 67.2228 40.4634 68.8086 40.4599 70.41H40.4199ZM34.4899 70.41C34.5 69.4861 34.3302 68.569 33.9899 67.71C33.6756 66.9043 33.2029 66.1699 32.5999 65.55C32.001 64.9467 31.2914 64.4645 30.5099 64.13C29.6826 63.7867 28.7956 63.61 27.8999 63.61C27.0042 63.61 26.1172 63.7867 25.2899 64.13C24.5041 64.4621 23.7908 64.9444 23.1899 65.55C22.5902 66.1725 22.118 66.9063 21.7999 67.71C21.133 69.4448 21.133 71.3652 21.7999 73.1C22.1157 73.9049 22.5881 74.6391 23.1899 75.26C23.8063 75.8806 24.5404 76.3719 25.3492 76.705C26.158 77.0382 27.0252 77.2064 27.8999 77.2C28.7732 77.2074 29.6392 77.0395 30.4465 76.7062C31.2538 76.373 31.986 75.8812 32.5999 75.26C33.2087 74.6428 33.6851 73.9078 33.9999 73.1C34.3367 72.2438 34.5032 71.33 34.4899 70.41Z" fill="white"/>
<path d="M43.46 82.12V58.69H55.82C56.9062 58.6803 57.9847 58.8736 59 59.26C59.9407 59.6164 60.8008 60.1569 61.53 60.85C62.2529 61.5583 62.8257 62.4051 63.214 63.3398C63.6023 64.2745 63.7982 65.2779 63.79 66.29C63.7984 67.3055 63.5905 68.3111 63.18 69.24C62.7939 70.1316 62.225 70.9322 61.51 71.59C60.7786 72.2629 59.9271 72.7921 59 73.15C57.9919 73.5372 56.9198 73.7305 55.84 73.72H49.24V82.12H43.46ZM55.15 63.61H49.22V69H55.15C55.8874 69.0225 56.6047 68.7571 57.15 68.26C57.4261 68.0194 57.6455 67.7207 57.7925 67.3853C57.9395 67.0499 58.0103 66.6861 58 66.32C58.0192 65.9495 57.9586 65.5792 57.8223 65.2341C57.686 64.8891 57.4772 64.5773 57.21 64.32C56.9315 64.07 56.6057 63.8783 56.2519 63.7564C55.898 63.6344 55.5234 63.5847 55.15 63.61Z" fill="white"/>
<path d="M66.73 82.12V58.69H85.21V63.69H72.49V67.9H80.89V72.73H72.49V77.15H85.35V82.15L66.73 82.12Z" fill="white"/>
<path d="M88.73 58.69H94.15L104.8 72.28V58.69H110.22V82.12H105.13L94.15 68V82.12H88.73V58.69Z" fill="white"/>
<path d="M97.1901 88.12H28.4001C27.3839 88.12 26.5601 88.9438 26.5601 89.96V90.58C26.5601 91.5962 27.3839 92.42 28.4001 92.42H97.1901C98.2063 92.42 99.0301 91.5962 99.0301 90.58V89.96C99.0301 88.9438 98.2063 88.12 97.1901 88.12Z" fill="white"/>
<path d="M69.4 20.91C68.8643 21.9774 68.1196 22.9262 67.21 23.7L84 42.15H88.72L69.4 20.91Z" fill="#6C7789"/>
</svg>
