<svg width="140" height="140" viewBox="0 0 140 140" fill="none" xmlns="http://www.w3.org/2000/svg">
<path d="M80.13 114.31C85.88 104.31 91 96 96.25 90.75L74.83 38.85V81.85C76.8054 82.9258 78.3661 84.629 79.2656 86.6907C80.1651 88.7524 80.3521 91.055 79.7971 93.2348C79.242 95.4146 77.9765 97.3473 76.2006 98.7278C74.4246 100.108 72.2394 100.858 69.99 100.858C67.7406 100.858 65.5554 100.108 63.7794 98.7278C62.0035 97.3473 60.738 95.4146 60.1829 93.2348C59.6279 91.055 59.8149 88.7524 60.7144 86.6907C61.6139 84.629 63.1746 82.9258 65.15 81.85V38.85L43.75 90.75C49 96 54.11 104.31 59.86 114.31H80.13Z" fill="#00CE7C"/>
<path d="M88.1499 118.04H51.8599V127.89H88.1499V118.04Z" fill="#6C7789"/>
<path d="M23 19.61V23.34H52.71C47.2405 25.815 42.3607 29.4261 38.395 33.9331C34.4293 38.4402 31.4687 43.74 29.71 49.48H33.63C35.7928 43.0885 39.5974 37.3777 44.6626 32.9198C49.7278 28.4619 55.8756 25.4135 62.49 24.08V19.61H23Z" fill="#6C7789"/>
<path d="M110.05 48.83C108.239 43.231 105.28 38.0718 101.361 33.6825C97.4414 29.2932 92.6489 25.7705 87.2899 23.34H117V19.61H77.6299V24.1C84.1027 25.4312 90.1242 28.4053 95.1154 32.7363C100.107 37.0672 103.9 42.6094 106.13 48.83H110.05Z" fill="#6C7789"/>
<path d="M117.05 28.64C121.01 28.64 124.22 25.4299 124.22 21.47C124.22 17.5101 121.01 14.3 117.05 14.3C113.09 14.3 109.88 17.5101 109.88 21.47C109.88 25.4299 113.09 28.64 117.05 28.64Z" fill="#00CE7C"/>
<path d="M22.9498 28.64C26.9097 28.64 30.1198 25.4299 30.1198 21.47C30.1198 17.5101 26.9097 14.3 22.9498 14.3C18.9899 14.3 15.7798 17.5101 15.7798 21.47C15.7798 25.4299 18.9899 28.64 22.9498 28.64Z" fill="#00CE7C"/>
<path d="M60.6201 12.11V30.85H79.3801V12.11H60.6201ZM75.6201 27.11H64.3501V15.84H75.6501L75.6201 27.11Z" fill="white"/>
<path d="M20.4102 46.68V65.42H39.1502V46.68H20.4102ZM35.4102 61.68H24.1402V50.41H35.4202L35.4102 61.68Z" fill="white"/>
<path d="M100.85 46.68V65.42H119.59V46.68H100.85ZM115.85 61.68H104.58V50.41H115.86L115.85 61.68Z" fill="white"/>
</svg>
