<svg width="48" height="48" viewBox="0 0 48 48" fill="none" xmlns="http://www.w3.org/2000/svg">
<path d="M44 24C44 12.9543 35.0457 4 24 4C12.9543 4 4 12.9543 4 24C4 33.9824 11.3137 42.2566 20.875 43.757V29.7812H15.7969V24H20.875V19.5937C20.875 14.5812 23.8609 11.8125 28.4293 11.8125C30.6176 11.8125 32.9062 12.2031 32.9062 12.2031V17.125H30.3844C27.9 17.125 27.125 18.6668 27.125 20.2484V24H32.6719L31.7852 29.7812H27.125V43.757C36.6863 42.2566 44 33.9824 44 24Z" fill="#1877F2"/>
<path d="M31.7852 29.7812L32.6719 24H27.125V20.2484C27.125 18.6668 27.9 17.125 30.3844 17.125H32.9062V12.2031C32.9062 12.2031 30.6176 11.8125 28.4293 11.8125C23.8609 11.8125 20.875 14.5813 20.875 19.5938V24H15.7969V29.7812H20.875V43.757C21.8934 43.9168 22.9367 44 24 44C25.0633 44 26.1066 43.9168 27.125 43.757V29.7812H31.7852Z" fill="white"/>
</svg>
