<svg width="48" height="48" viewBox="0 0 48 48" fill="none" xmlns="http://www.w3.org/2000/svg">
  <g clip-path="url(#clip0)">
    <path d="M46.9964 12.28C46.4455 10.2018 44.8173 8.56545 42.7527 8.00909C39.0109 7 24 7 24 7C24 7 8.98909 7 5.24727 8.00909C3.18273 8.56545 1.55455 10.2018 1.00364 12.28C0 16.0491 0 23.9091 0 23.9091C0 23.9091 0 31.7691 1.00364 35.5382C1.55455 37.6164 3.18273 39.2527 5.24727 39.8091C8.98909 40.8182 24 40.8182 24 40.8182C24 40.8182 39.0109 40.8182 42.7527 39.8091C44.8173 39.2527 46.4455 37.6164 46.9964 35.5382C48 31.7691 48 23.9091 48 23.9091C48 23.9091 48 16.0491 46.9964 12.28Z" fill="#FF0000"/>
    <path d="M19.0908 31.0464L31.6363 23.9091L19.0908 16.7718V31.0464Z" fill="white"/>
  </g>
  <defs>
    <clipPath id="clip0">
      <rect y="7" width="48" height="33.8182" fill="white"/>
    </clipPath>
  </defs>
</svg>
