<svg width="48" height="48" viewBox="0 0 48 48" fill="none" xmlns="http://www.w3.org/2000/svg">
<g clip-path="url(#clip0)">
<path d="M12.0361 8.74791C11.717 8.32045 11.312 7.96451 10.847 7.703C10.3821 7.44149 9.86759 7.28019 9.33658 7.22948C8.80557 7.17877 8.26982 7.23978 7.7638 7.40857C7.25778 7.57737 6.7927 7.85021 6.39848 8.20955C4.92323 9.54962 4.82302 11.8476 6.0116 13.4463L13.6698 23.7334L5.95567 34.095C4.76476 35.6938 4.8673 37.9917 6.34254 39.3318C6.73693 39.691 7.20213 39.9637 7.70824 40.1323C8.21435 40.3009 8.75015 40.3617 9.28117 40.3108C9.81218 40.2598 10.3267 40.0983 10.7915 39.8366C11.2563 39.5749 11.6612 39.2187 11.9802 38.7911L22.7473 24.3277C22.8756 24.1552 22.9449 23.946 22.9449 23.7311C22.9449 23.5161 22.8756 23.3069 22.7473 23.1344L12.0361 8.74791Z" fill="white"/>
<path d="M35.6678 8.74791C35.9867 8.32028 36.3916 7.96415 36.8564 7.70242C37.3213 7.4407 37.8357 7.27917 38.3668 7.22824C38.8978 7.17731 39.4336 7.23811 39.9397 7.40671C40.4458 7.57532 40.911 7.848 41.3054 8.20722C42.7806 9.54729 42.8808 11.8452 41.6922 13.444L34.0341 23.731L41.7482 34.0927C42.9391 35.6914 42.8365 37.9894 41.3613 39.3294C40.9669 39.6887 40.5017 39.9613 39.9956 40.1299C39.4895 40.2985 38.9537 40.3593 38.4227 40.3084C37.8917 40.2575 37.3772 40.096 36.9124 39.8342C36.4475 39.5725 36.0426 39.2164 35.7237 38.7887L24.9566 24.3253C24.8283 24.1529 24.759 23.9436 24.759 23.7287C24.759 23.5138 24.8283 23.3046 24.9566 23.1321L35.6678 8.74791Z" fill="#1FBAED"/>
</g>
<defs>
<clipPath id="clip0">
<rect x="5" y="7" width="37.755" height="33.56" fill="white"/>
</clipPath>
</defs>
</svg>
